<?xml version="1.0" encoding="UTF-8" standalone="no"?><!DOCTYPE svg PUBLIC "-//W3C//DTD SVG 1.1//EN" "http://www.w3.org/Graphics/SVG/1.1/DTD/svg11.dtd"><svg width="100%" height="100%" viewBox="0 0 50 70" version="1.1" xmlns="http://www.w3.org/2000/svg" xmlns:xlink="http://www.w3.org/1999/xlink" xml:space="preserve" style="fill-rule:evenodd;clip-rule:evenodd;stroke-linejoin:round;stroke-miterlimit:1.41421;"><g><path d="M2.693,20.06c9.738,0.294 16.348,-2.774 22.007,-7.35c4.102,4.196 10.722,6.997 21.649,7.35c0.741,21.011 -8.808,33.176 -22.055,40.356c-15.274,-8.905 -22.956,-21.656 -21.601,-40.356Zm18.13,12.196l-5.389,0l0,19.015l3.426,0l0,-15.641l0.464,0l2.891,7.874l3.283,0l2.89,-7.874l0.464,0l0,15.641l3.426,0l0,-19.015l-5.389,0l-2.89,8.168l-0.286,0l-2.89,-8.168Zm-6.142,-4.904l9.529,1.512l9.402,-1.575l0,2.898c-6.516,2.191 -12.852,2.167 -19.014,0.032l0.083,-2.867Zm26.432,-2.878l-16.685,3.032l-17.545,-3.69l18.283,-2.911l15.947,3.569Z" style="fill:#12b132;"/></g></svg>